<svg id="logotype" xmlns="http://www.w3.org/2000/svg" width="255.999" height="64" viewBox="0 0 255.999 64">
  <g id="symbol">
    <path id="Trazado_17288" data-name="Trazado 17288" d="M64,32A32,32,0,1,1,32,0,32,32,0,0,1,64,32" fill="#fd2017"/>
    <path id="Trazado_17289" data-name="Trazado 17289" d="M63.216,49.877a13.786,13.786,0,1,1-13.78-14.223,14.007,14.007,0,0,1,13.78,14.223" transform="translate(-17.437 -17.879)" fill="#0e0b0c"/>
    <path id="Trazado_17290" data-name="Trazado 17290" d="M43.732,34.356a9.819,9.819,0,1,1-9.814-10.129,9.973,9.973,0,0,1,9.814,10.129" transform="translate(-11.782 -12.019)" fill="#fff"/>
    <path id="Trazado_17291" data-name="Trazado 17291" d="M44.571,74.88a6.626,6.626,0,1,1-6.624-6.836,6.729,6.729,0,0,1,6.624,6.836" transform="translate(-15.309 -33.546)" fill="#fff"/>
  </g>
  <g id="logotype-2" data-name="logotype" transform="translate(84.676 13.643)">
    <path id="Trazado_17292" data-name="Trazado 17292" d="M197.567,42.74a11.039,11.039,0,0,0,0,22.067,10.55,10.55,0,0,0,8.118-3.861L202,57.686a5.759,5.759,0,0,1-4.435,2.108,5.833,5.833,0,0,1-5.306-3.518h15.991v-2.5A10.873,10.873,0,0,0,197.567,42.74m-5.306,8.531a5.76,5.76,0,0,1,10.611,0Z" transform="translate(-175.874 -34.55)" fill="#fd2017"/>
    <path id="Trazado_17293" data-name="Trazado 17293" d="M247.717,27.244V37.516a10.383,10.383,0,0,0-6.224-2.082,11.039,11.039,0,0,0,0,22.067,10.39,10.39,0,0,0,6.224-2.086V57.5h4.854V27.244Zm-6.224,25.245a6.024,6.024,0,1,1,5.836-6.021,5.939,5.939,0,0,1-5.836,6.021" transform="translate(-197.31 -27.244)" fill="#fd2017"/>
    <path id="Trazado_17294" data-name="Trazado 17294" d="M444.719,42.74a11.039,11.039,0,0,0,0,22.067,10.571,10.571,0,0,0,8.122-3.861l-3.687-3.26a5.757,5.757,0,0,1-4.434,2.108,5.823,5.823,0,0,1-5.3-3.518H455.4v-2.5A10.876,10.876,0,0,0,444.719,42.74m-5.3,8.531a5.759,5.759,0,0,1,10.61,0Z" transform="translate(-296.487 -34.55)" fill="#0e0b0c"/>
    <path id="Trazado_17295" data-name="Trazado 17295" d="M372.062,44.441v-1.8h-4.851V64.76h4.851V53.67a5.941,5.941,0,0,1,5.836-6.025l.062-.173V42.644l-.062,0a10.372,10.372,0,0,0-5.836,1.8" transform="translate(-263.874 -34.503)" fill="#0e0b0c"/>
    <path id="Trazado_17296" data-name="Trazado 17296" d="M483.86,44.441v-1.8h-4.85V64.76h4.85V53.67a5.938,5.938,0,0,1,5.836-6.025l.06-.173V42.644l-.06,0a10.365,10.365,0,0,0-5.836,1.8" transform="translate(-318.433 -34.503)" fill="#0e0b0c"/>
    <path id="Trazado_17297" data-name="Trazado 17297" d="M170.236,44.441v-1.8h-4.855V64.76h4.855V53.67a5.938,5.938,0,0,1,5.833-6.025l.064-.173V42.644l-.064,0a10.365,10.365,0,0,0-5.833,1.8" transform="translate(-165.381 -34.503)" fill="#fd2017"/>
    <path id="Trazado_17298" data-name="Trazado 17298" d="M406.108,37.516a10.357,10.357,0,0,0-6.22-2.082,11.039,11.039,0,0,0,0,22.067,10.364,10.364,0,0,0,6.22-2.086V57.5h4.856V27.244h-4.856Zm-6.22,14.973a6.024,6.024,0,1,1,5.835-6.021,5.935,5.935,0,0,1-5.835,6.021" transform="translate(-274.607 -27.244)" fill="#0e0b0c"/>
    <path id="Trazado_17299" data-name="Trazado 17299" d="M289.5,35.434a10.366,10.366,0,0,0-6.221,2.082V27.244h-4.851V57.5h4.851V55.415A10.373,10.373,0,0,0,289.5,57.5a11.039,11.039,0,0,0,0-22.067m0,17.055a6.024,6.024,0,1,1,5.835-6.021,5.938,5.938,0,0,1-5.835,6.021" transform="translate(-220.546 -27.244)" fill="#0e0b0c"/>
    <path id="Trazado_17300" data-name="Trazado 17300" d="M333.26,42.74a11.039,11.039,0,1,0,10.692,11.033A10.878,10.878,0,0,0,333.26,42.74m0,17.055a6.024,6.024,0,1,1,5.836-6.021,5.935,5.935,0,0,1-5.836,6.021" transform="translate(-242.092 -34.55)" fill="#0e0b0c"/>
  </g>
</svg>
